<svg width="54" height="54" viewBox="0 0 54 54" fill="none" xmlns="http://www.w3.org/2000/svg"><g clip-path="url(#clip0_3215_26)"><path fill="#fff" d="M0 0h54v54H0z"/><path fill-rule="evenodd" clip-rule="evenodd" d="M27 0c14.911 0 27 12.086 27 27 0 14.911-12.09 27-27 27C12.089 54 0 41.91 0 27 0 12.089 12.09 0 27 0zm13.843 13.827c-2.891-2.542-6.94-4.01-11.645-4.01-12.265 0-20.607 9.524-20.607 9.524l2.35 3.755s1.3.109.612-2.102c.595-1.13 1.76-2.651 4.03-4.407V41.59c-.979.277-2.273.8-1.39 1.689h6.753c.89-.897-.514-1.438-1.37-1.689v-5.9s4.631 1.83 9.621 1.83c4.386 0 8.376-1.313 11.344-3.684 2.967-2.357 4.88-5.878 4.868-9.902a13.305 13.305 0 00-4.566-10.108zm-3.579 18.036c-2.051 2.039-5.036 3.329-8.479 3.326-3.84.002-7.074-.747-9.208-1.805V14.626c2.342-1.675 6.141-2.707 9.208-2.7 3.726.002 6.654 1.42 8.633 3.57 1.975 2.163 3.054 5.036 3.063 8.376-.012 3.255-1.164 5.936-3.217 7.991z" fill="#666"/></g><defs><clipPath id="clip0_3215_26"><path fill="#fff" d="M0 0h54v54H0z"/></clipPath></defs></svg>